<svg xmlns="http://www.w3.org/2000/svg" width="500" height="500" viewBox="0 0 500 500" version="1.1"><path d="M 261.500 79.030 C 255.450 79.427, 249.150 80.097, 247.500 80.519 C 237.561 83.060, 226.556 91.974, 221.852 101.293 C 218.902 107.138, 215.045 122.645, 215.016 128.781 L 215 132.062 227.244 131.781 L 239.487 131.500 240.566 125.500 C 241.159 122.200, 241.956 118.271, 242.337 116.768 C 243.489 112.220, 248.672 107.267, 254.598 105.049 C 259.828 103.092, 262.154 103, 306.153 103 L 352.230 103 351.565 108.750 C 351.199 111.912, 350.269 118.325, 349.498 123 C 348.727 127.675, 347.733 133.750, 347.289 136.500 L 346.481 141.500 260.491 142.022 C 164.076 142.607, 170.011 142.138, 158.065 150.115 C 154.690 152.369, 150.426 156.182, 148.588 158.589 C 141.772 167.515, 141.412 169.175, 129.965 244.500 C 128.879 251.650, 127.561 259.975, 127.037 263 C 120.496 300.761, 118.715 316.157, 119.960 324.180 C 121.373 333.289, 124.971 340.179, 131.884 347.020 C 140.505 355.549, 150.607 359.425, 162.596 358.804 L 168.461 358.500 169.675 353.015 C 170.343 349.998, 171.027 344.823, 171.195 341.515 L 171.500 335.500 162.500 334.997 C 152.249 334.424, 147.885 332.612, 145.459 327.921 C 143.372 323.885, 143.492 318.225, 146.007 302 C 147.158 294.575, 148.719 284.450, 149.476 279.500 C 150.233 274.550, 151.573 266, 152.454 260.500 C 155.092 244.017, 156.571 234.553, 159.958 212.500 C 165.755 174.745, 166.709 172.242, 176.780 168.338 C 181.197 166.626, 187.471 166.476, 274.437 166.004 L 367.373 165.500 368.162 162.455 C 368.596 160.780, 369.886 153.130, 371.029 145.455 C 373.108 131.491, 373.471 129.167, 376.496 110.500 C 379.392 92.621, 380.989 79.791, 380.429 78.886 C 379.785 77.843, 277.694 77.966, 261.500 79.030 M 212 175.731 C 210.075 175.958, 208.138 176.495, 207.696 176.925 C 207.254 177.355, 206.263 181.936, 205.493 187.104 C 202.533 206.979, 201.917 210.948, 199.526 225.500 C 198.171 233.750, 196.137 246.800, 195.006 254.500 C 193.875 262.200, 192.509 270.975, 191.969 274 C 190.953 279.698, 188.365 296.439, 185.554 315.500 C 184.662 321.550, 183.291 330.550, 182.508 335.500 C 181.725 340.450, 180.088 350.800, 178.869 358.500 C 176.166 375.576, 176.034 387.599, 178.471 394.500 C 181.233 402.317, 187.577 410.552, 194.291 415.036 C 205.675 422.638, 204.291 422.500, 269.390 422.500 C 319.831 422.500, 327.381 422.307, 328.066 421 C 328.499 420.175, 329.774 413.200, 330.899 405.500 C 332.647 393.534, 338.447 356.109, 340.930 340.765 C 341.352 338.161, 341.465 335.798, 341.182 335.515 C 340.898 335.232, 313.097 335, 279.401 335 L 218.135 335 217.438 337.197 C 216.404 340.454, 214.275 357.942, 214.844 358.510 C 215.113 358.780, 237.057 359, 263.608 359 C 290.159 359, 312.106 359.362, 312.379 359.804 C 312.652 360.246, 312.506 362.383, 312.055 364.554 C 311.604 366.724, 310.218 375.137, 308.975 383.250 L 306.715 398 259.325 398 C 207.345 398, 207.266 397.992, 203.051 392.071 C 201.024 389.225, 200.851 388.064, 201.283 380.208 C 201.728 372.110, 202.412 367.132, 206.535 342 C 208.051 332.761, 208.750 328.208, 212.987 300 C 214.102 292.575, 215.431 284.025, 215.940 281 C 217.603 271.128, 220.013 255.756, 221.977 242.500 C 223.036 235.350, 224.628 225, 225.515 219.500 C 231.381 183.126, 232.204 177.139, 231.495 175.992 C 230.905 175.037, 219.239 174.881, 212 175.731" stroke="none" fill="#ec1d25" fill-rule="evenodd"/></svg>